<svg id="SvgjsSvg1001" width="288" height="288" xmlns="http://www.w3.org/2000/svg" version="1.1" xmlns:xlink="http://www.w3.org/1999/xlink" xmlns:svgjs="http://svgjs.com/svgjs"><defs id="SvgjsDefs1002"></defs><g id="SvgjsG1008"><svg xmlns="http://www.w3.org/2000/svg" width="288" height="288" enable-background="new 0 0 32 32" viewBox="0 0 32 32"><path d="M 16.5 0 A 3 3 0 0 0 13.5 3 A 3 3 0 0 0 16.5 6 A 3 3 0 0 0 19.5 3 A 3 3 0 0 0 16.5 0 z M 15.5 7 C 15.4926 7 15.485846 7.0018331 15.478516 7.0019531 L 13.328125 7.0058594 L 13.316406 7.0039062 C 13.312906 7.0033569 13.310141 7.0062194 13.306641 7.0058594 L 12.587891 7.0078125 C 12.460938 7.0087891 12.335449 7.0166061 12.212891 7.0488281 L 4.6191406 9.0488281 C 3.8178248 9.2597684 3.3378906 10.082031 3.5488281 10.882812 C 3.7260743 11.555665 4.334961 12 5 12 C 5.1264648 12 5.2548828 11.985352 5.3828125 11.951172 L 12.611328 10.048828 L 11.333984 17.710938 C 11.318914 17.801517 11.320186 17.890991 11.316406 17.980469 C 11.217776 18.246521 11.190736 18.542908 11.259766 18.839844 L 12.40625 23.765625 L 10.697266 26.755859 C 10.286134 27.474609 10.536621 28.391602 11.255859 28.802734 C 11.490717 28.936525 11.745605 29 11.998047 29 C 12.519043 29 13.025878 28.728516 13.302734 28.244141 L 15.302734 24.744141 C 15.490722 24.416016 15.546876 24.02832 15.460938 23.660156 L 14.726562 20.501953 L 15.712891 20.666016 C 15.87793 20.693546 16.040832 20.698673 16.201172 20.689453 L 17.380859 23.933594 L 16.027344 26.873047 C 15.681153 27.625976 16.010743 28.516601 16.763672 28.863281 C 16.966308 28.956059 17.181152 29 17.390625 29 C 17.958496 29 18.500977 28.676758 18.753906 28.126953 L 20.363281 24.626953 C 20.52832 24.267578 20.544927 23.859374 20.410156 23.488281 L 18.410156 17.988281 C 18.404956 17.974001 18.396245 17.961306 18.390625 17.947266 L 19.712891 10.009766 L 23.005859 10.015625 L 27.005859 10 C 27.834472 9.99707 28.503418 9.3222656 28.5 8.4941406 C 28.496588 7.6680028 27.825684 7 27 7 L 26.994141 7 L 23.003906 7.015625 L 16.617188 7.0019531 C 16.609252 7.0018314 16.601746 7 16.59375 7 L 16.587891 7 L 16.027344 7.0019531 L 15.503906 7 L 15.5 7 z M 17.390625 29 L 11.998047 29 L 8.6191406 29 L 6.7246094 28.052734 C 6.4770508 27.928711 6.1767578 28.029298 6.0527344 28.275391 C 5.9291992 28.522461 6.030274 28.823242 6.2773438 28.947266 L 8.2773438 29.947266 C 8.3466795 29.981445 8.4223633 30 8.5 30 L 10.5 30 L 20.5 30 L 22.5 30 C 22.57764 30 22.655273 29.981446 22.724609 29.947266 L 24.724609 28.947266 C 24.97168 28.823242 25.070801 28.524414 24.947266 28.277344 C 24.823243 28.03125 24.523437 27.928711 24.277344 28.052734 L 22.382812 29 L 17.390625 29 z M 20.5 30 A 1 1 0 0 0 19.5 31 A 1 1 0 0 0 20.5 32 A 1 1 0 0 0 21.5 31 A 1 1 0 0 0 20.5 30 z M 10.5 30 A 1 1 0 0 0 9.5 31 A 1 1 0 0 0 10.5 32 A 1 1 0 0 0 11.5 31 A 1 1 0 0 0 10.5 30 z " fill="#ff9f18" class="color000 svgShape"></path></svg></g></svg>